<svg width="21" height="21" viewBox="0 0 21 21" fill="none" xmlns="http://www.w3.org/2000/svg">
<path d="M0.373969 19.8812C0.609854 20.1112 0.927931 20.2372 1.2573 20.2312C1.58568 20.2319 1.90181 20.1066 2.14064 19.8812L17.6906 4.31657V17.7479C17.6906 18.4382 18.2503 18.9979 18.9406 18.9979C19.2764 19.007 19.6013 18.8788 19.8404 18.6429C20.0795 18.4069 20.212 18.0837 20.2073 17.7479V1.5275C20.2506 1.33735 20.2496 1.13646 20.1996 0.940733C20.0865 0.497844 19.7407 0.152011 19.2978 0.0389049C19.1021 -0.01108 18.9012 -0.0120899 18.711 0.0312141H2.49064C1.80028 0.0312141 1.24064 0.590858 1.24064 1.28121C1.24064 1.97157 1.80028 2.53121 2.49064 2.53121H15.9406L0.373969 18.0979C0.13475 18.3329 0 18.6542 0 18.9895C0 19.3249 0.13475 19.6462 0.373969 19.8812Z" fill="white"/>
</svg>
