<svg width="20" height="21" viewBox="0 0 20 21" fill="none" xmlns="http://www.w3.org/2000/svg">
<path d="M4 0.592773C1.79086 0.592773 0 2.38363 0 4.59277V16.5928C0 18.8019 1.79086 20.5928 4 20.5928H16C18.2091 20.5928 20 18.8019 20 16.5928V4.59277C20 2.38363 18.2091 0.592773 16 0.592773H4ZM15.1744 6.02916C15.1744 6.30132 15.1106 6.36202 14.8281 6.36398C14.3709 6.36398 13.9138 6.36202 13.4566 6.36398C13.023 6.36594 12.7169 6.60971 12.6953 7.03851C12.6699 7.56436 12.6826 8.09022 12.6865 8.63246C12.6875 8.77684 12.8011 8.90253 12.9455 8.90253C13.5655 8.90449 14.1855 8.90253 14.8036 8.90449C15.0959 8.90449 15.1518 8.95833 15.1312 9.24518C15.0733 10.0303 15.0076 10.8145 14.9468 11.5997C14.933 11.7818 14.8438 11.8572 14.6623 11.8552C14.0962 11.8493 13.5312 11.8532 12.9651 11.8532C12.8091 11.8532 12.6826 11.9797 12.6826 12.1358V20.0465C12.6826 20.4175 12.659 20.441 12.2853 20.441H9.84647C9.47467 20.441 9.4472 20.4156 9.4472 20.0485V13.1364C9.4472 12.4272 8.87226 11.8556 8.16305 11.8523C7.87463 11.8523 7.83342 11.8121 7.83146 11.537V9.21874C7.83342 8.95148 7.87757 8.90546 8.14146 8.90351C8.46716 8.89959 8.79286 8.90155 9.11757 8.90155C9.4472 8.90155 9.4472 8.90155 9.4472 8.58435C9.45112 7.80311 9.42954 7.02187 9.46289 6.24356C9.50017 5.36051 9.8759 4.62136 10.5518 4.04571C11.0531 3.62082 11.6408 3.40348 12.299 3.40153C13.1437 3.39761 13.9864 3.39957 14.831 3.39957C15.1136 3.39957 15.1754 3.45733 15.1754 3.73439C15.1763 4.49996 15.1763 5.26358 15.1744 6.02916Z" fill="url(#paint0_linear_351_265)"/>
<defs>
<linearGradient id="paint0_linear_351_265" x1="2.00244" y1="4.2499" x2="11.2932" y2="2.85233" gradientUnits="userSpaceOnUse">
<stop offset="0.0335209" stop-color="#1D5C8C"/>
<stop offset="0.315" stop-color="#1D749E"/>
<stop offset="0.595" stop-color="#1D85AB"/>
<stop offset="1" stop-color="#1E95B7"/>
</linearGradient>
</defs>
</svg>
