<svg width="20" height="21" viewBox="0 0 20 21" fill="none" xmlns="http://www.w3.org/2000/svg">
<path d="M19.9723 10.5908C19.9723 9.46391 19.9743 8.33795 19.9704 7.21102C19.9684 6.78096 19.9782 6.34407 19.9303 5.91793C19.5814 2.87432 17.0177 0.595041 13.9526 0.593086C11.3292 0.593086 8.70689 0.591132 6.08357 0.596996C5.76689 0.596996 5.44826 0.608726 5.13745 0.658573C2.11144 1.14531 0.00515626 3.62105 0.00320147 6.69007C-0.0007081 9.28993 -0.00265907 11.8898 0.00711486 14.4897C0.00906965 14.8972 0.0403427 15.3097 0.119512 15.7075C0.709857 18.6162 3.11718 20.5827 6.08357 20.5886C8.69125 20.5925 11.2989 20.5984 13.9066 20.5808C14.4178 20.5769 14.9388 20.5133 15.4392 20.3951C17.9227 19.8086 19.8296 17.5518 19.9381 15.0106C20.0017 13.5396 19.9498 12.0638 19.9498 10.5908H19.9723ZM18.0967 14.5943C18.0928 16.8413 16.311 18.6788 14.063 18.7013C11.3478 18.7286 8.63163 18.7286 5.91643 18.7013C3.68309 18.6778 1.90228 16.8735 1.8886 14.6421C1.871 11.9416 1.871 9.24204 1.8886 6.5415C1.90228 4.32771 3.65474 2.53614 5.86854 2.48043C7.2408 2.4472 8.61502 2.47457 9.98923 2.47457V2.4687C11.2765 2.4687 12.5656 2.48434 13.8529 2.46479C15.964 2.43352 17.5699 3.87908 17.9775 5.62471C18.0508 5.93747 18.0918 6.26588 18.0928 6.58548C18.1006 9.25572 18.1006 11.925 18.0967 14.5943Z" fill="#696969"/>
<path d="M10.1065 5.67353C7.37757 5.65007 5.1755 7.84529 5.15791 10.6025C5.14227 13.2776 7.33848 15.4856 10.0371 15.5071C12.7474 15.5286 14.9719 13.3334 14.9876 10.626C15.0022 7.9098 12.8197 5.69601 10.1065 5.67353ZM10.0615 13.7468C8.32467 13.7448 6.92113 12.3354 6.91917 10.5927C6.91917 8.84224 8.32858 7.43283 10.0791 7.43479C11.812 7.4387 13.2273 8.85299 13.2273 10.5888C13.2292 12.3325 11.8081 13.7487 10.0615 13.7468Z" fill="#696969"/>
<path d="M16.439 5.3335C16.439 5.97858 15.9259 6.49952 15.2828 6.50539C14.6377 6.51125 14.1089 5.97662 14.1128 5.32372C14.1148 4.68255 14.6416 4.15965 15.2808 4.16356C15.921 4.16746 16.4371 4.68744 16.439 5.3335Z" fill="#696969"/>
</svg>
