<svg width="24" height="24" viewBox="0 0 24 24" fill="none" xmlns="http://www.w3.org/2000/svg">
<path d="M0 24C0.21883 23.1991 0.427147 22.4367 0.635464 21.6746C0.969161 20.4547 1.30597 19.236 1.63188 18.0141C1.65836 17.9152 1.64512 17.7797 1.59645 17.6901C-0.974611 12.9685 -0.21299 7.30349 3.57916 3.50551C6.16384 0.916925 9.33182 -0.242251 12.9826 0.0419946C18.0438 0.436045 22.2529 4.0043 23.5289 8.92097C25.2834 15.6817 20.7787 22.5613 13.8801 23.6457C11.2845 24.0537 8.81589 23.6429 6.48119 22.4378C6.3562 22.3732 6.24795 22.3627 6.11362 22.3981C4.16361 22.9136 2.21244 23.4245 0.261662 23.9361C0.18768 23.9552 0.112919 23.9724 0 24ZM2.86582 21.1626C2.96589 21.1396 3.0278 21.1272 3.08854 21.1112C4.13636 20.8371 5.18651 20.5723 6.22965 20.2818C6.49637 20.2075 6.69768 20.2413 6.93559 20.3788C9.62619 21.9351 12.4542 22.2244 15.3824 21.1801C20.4248 19.382 23.1146 13.7352 21.3612 8.69435C19.2563 2.64265 12.161 0.108968 6.75064 3.54016C3.65041 5.50613 2.11705 8.41556 2.12172 12.0913C2.12444 13.9996 2.70929 15.7545 3.75516 17.3522C3.83186 17.4694 3.86068 17.5741 3.81395 17.7123C3.74347 17.921 3.69402 18.1364 3.63562 18.349C3.38252 19.2741 3.12943 20.1993 2.86582 21.1626Z" fill="#6C6C6C"/>
<path d="M8.03474 6.39727C8.14221 6.39727 8.21386 6.40077 8.28511 6.39649C8.63555 6.37663 8.8684 6.54329 9.0004 6.85635C9.33293 7.64484 9.66896 8.43216 9.98163 9.22882C10.0315 9.35537 10.0182 9.55863 9.94697 9.67154C9.72659 10.0196 9.47739 10.3518 9.21456 10.6699C8.99339 10.937 8.96458 11.0425 9.14408 11.3443C10.1093 12.9668 11.4601 14.1393 13.2189 14.8359C13.479 14.9387 13.6227 14.9145 13.8053 14.6961C14.1133 14.3281 14.4151 13.9547 14.7102 13.5766C14.8987 13.3352 15.026 13.269 15.3114 13.3885C15.7896 13.5887 16.2572 13.8134 16.726 14.0345C17.0722 14.1977 17.411 14.3756 17.7567 14.5395C17.9549 14.6334 18.0425 14.7728 18.0406 14.9982C18.0324 15.9226 17.694 16.6422 16.8736 17.139C16.024 17.6534 15.144 17.6865 14.2114 17.4712C11.4021 16.8225 9.24064 15.235 7.58073 12.9178C7.13528 12.2959 6.67893 11.6807 6.36548 10.9748C5.93016 9.99434 5.79465 8.99948 6.18325 7.97113C6.3756 7.46222 6.69996 7.04403 7.09089 6.67567C7.36579 6.41557 7.70883 6.36378 8.03474 6.39727Z" fill="#6C6C6C"/>
</svg>
